<svg width="14" height="14" viewBox="0 0 14 14" version="1.1" xmlns="http://www.w3.org/2000/svg" xmlns:xlink="http://www.w3.org/1999/xlink">
<g id="Canvas" fill="none">
<g id="emojiIcon">
<g id="Ellipse">
<circle cx="7" cy="7" r="6.25" stroke-width="1.5" stroke="#BBBAB2"/>
</g>
<g id="Ellipse_2">
<path d="M 0 0C 0.518714 0.896702 1.48823 1.5 2.59865 1.5C 3.70908 1.5 4.67859 0.896702 5.19731 0" stroke-width="1.5" stroke-linecap="round" stroke-linejoin="round" transform="translate(4.40137 8.5)" stroke="#BBBAB2"/>
</g>
<g id="Ellipse 2">
<path d="M 2 1C 2 1.55228 1.55228 2 1 2C 0.447715 2 0 1.55228 0 1C 0 0.447715 0.447715 0 1 0C 1.55228 0 2 0.447715 2 1Z" transform="translate(4 4.5)" fill="#BBBAB2"/>
</g>
<g id="Ellipse 2.1">
<path d="M 2 1C 2 1.55228 1.55228 2 1 2C 0.447715 2 0 1.55228 0 1C 0 0.447715 0.447715 0 1 0C 1.55228 0 2 0.447715 2 1Z" transform="translate(8 4.5)" fill="#BBBAB2"/>
</g>
</g>
</g>
</svg>

