<svg width="16" height="16" viewBox="0 0 16 16" version="1.1" xmlns="http://www.w3.org/2000/svg" xmlns:xlink="http://www.w3.org/1999/xlink">
<g id="Canvas" fill="none">
<g id="Fill 1">
<path fill-rule="evenodd" clip-rule="evenodd" d="M 11.267 10.225C 11.558 10.518 11.556 10.993 11.263 11.284C 11.118 11.428 10.927 11.5 10.736 11.5C 10.544 11.5 10.351 11.426 10.205 11.28L 7.99698 9.059L 5.77598 11.268C 5.62998 11.412 5.43998 11.485 5.24798 11.485C 5.05698 11.485 4.86398 11.411 4.71798 11.264C 4.42698 10.972 4.42898 10.497 4.72198 10.206L 6.94298 7.998L 4.73398 5.776C 4.44198 5.484 4.44398 5.009 4.73798 4.718C 5.02898 4.426 5.50398 4.428 5.79498 4.722L 8.00298 6.943L 10.226 4.735C 10.517 4.443 10.992 4.445 11.284 4.739C 11.575 5.031 11.573 5.505 11.28 5.796L 9.05798 8.004L 11.267 10.225ZM 8 0C 3.582 0 0 3.582 0 8C 0 12.419 3.582 16 8 16C 12.419 16 16 12.419 16 8C 16 3.582 12.419 0 8 0Z" transform="translate(-0.000610352 -0.000610352)" fill="#C4C4C4"/>
</g>
</g>
</svg>

