<svg width="87" height="24" viewBox="0 0 87 24" version="1.1" xmlns="http://www.w3.org/2000/svg" xmlns:xlink="http://www.w3.org/1999/xlink">
<g id="Canvas" fill="none">
<g id="headerActions">
<g id="timeIcon">
<g id="Ellipse">
<circle cx="8.5" cy="8.5" r="8.5" stroke-width="1.5" transform="translate(68.5 5.5)" stroke="#424241"/>
</g>
<g id="Vector">
<path d="M 0 0L 0 5.5L 4.5 5.5" stroke-width="1.5" transform="translate(77 8.5)" stroke="#424241"/>
</g>
</g>
<g id="shareIcon">
<g id="Vector_2">
<path d="M 4.5 0L 0 0L 0 15L 15 15L 15 0L 10 0" stroke-width="1.5" transform="translate(35.5 7.5)" stroke="#424241"/>
</g>
<g id="Vector 2">
<path d="M 3 0L 3.53033 -0.53033L 3 -1.06066L 2.46967 -0.53033L 3 0ZM 0.53033 3.53033L 3.53033 0.53033L 2.46967 -0.53033L -0.53033 2.46967L 0.53033 3.53033ZM 2.46967 0.53033L 5.46967 3.53033L 6.53033 2.46967L 3.53033 -0.53033L 2.46967 0.53033ZM 3.75 12.5L 3.75 0L 2.25 0L 2.25 12.5L 3.75 12.5Z" transform="translate(40 2)" fill="#424241"/>
</g>
</g>
<g id="moreIcon">
<g id="Ellipse_2">
<circle cx="2" cy="2" r="2" transform="translate(0 12)" fill="#424241"/>
</g>
<g id="Ellipse_3">
<circle cx="2" cy="2" r="2" transform="translate(7 12)" fill="#424241"/>
</g>
<g id="Ellipse_4">
<circle cx="2" cy="2" r="2" transform="translate(14 12)" fill="#424241"/>
</g>
</g>
</g>
</g>
</svg>

